<svg width="184" height="105" viewBox="0 0 184 105" fill="none" xmlns="http://www.w3.org/2000/svg">
<path d="M52.5714 105C81.606 105 105.143 81.4951 105.143 52.5C105.143 23.5049 81.606 0 52.5714 0C23.5369 0 0 23.5049 0 52.5C0 81.4951 23.5369 105 52.5714 105Z" fill="#F7931A"/>
<path d="M45.0997 79.3078C41.9191 79.3078 38.8109 77.9845 35.7749 75.3375C32.7389 72.7388 30.3052 69.3699 28.474 65.2313C26.6428 61.0926 25.7271 56.9536 25.7271 52.815C25.7271 48.7243 26.6428 44.6339 28.474 40.5431C30.2571 36.5006 32.7871 33.1078 36.064 30.3647C39.2929 27.6216 42.7626 26.25 46.4731 26.25H75.9657V29.4984H70.8334C69.484 29.6909 68.4963 30.3887 67.8697 31.5919V72.8109C68.0143 73.629 68.3997 74.3269 69.0263 74.9044C69.6046 75.5301 70.3514 75.915 71.2672 76.0594H75.9657V79.3078H45.0997ZM49.4369 29.8594C46.4009 29.8594 43.654 30.9903 41.1963 33.2522C38.7386 35.514 36.8831 38.3535 35.6303 41.7703C34.3291 45.2353 33.6786 49.013 33.6786 53.1038C33.6786 57.2424 34.3291 61.0444 35.6303 64.5094C36.9314 68.0226 38.8348 70.8136 41.3409 72.8831C43.7986 74.9526 46.6417 75.9872 49.8706 75.9872H58.0389C59.34 75.7946 60.328 75.0727 61.0026 73.8216V32.8191C60.7617 31.4234 60.0146 30.4369 58.7617 29.8594H49.4369Z" fill="white"/>
<path d="M52.5714 78.75L52.5714 29.5312" stroke="white" stroke-width="2"/>
<path d="M131.429 0C102.394 0 78.8571 23.5049 78.8571 52.5C78.8571 81.4951 102.394 105 131.429 105C160.463 105 184 81.4951 184 52.5C184 23.5049 160.463 0 131.429 0Z" fill="black"/>
<path d="M138.9 25.6924C142.081 25.6924 145.189 27.0158 148.225 29.6627C151.261 32.2614 153.695 35.6303 155.526 39.7689C157.357 43.9076 158.273 48.0466 158.273 52.1852C158.273 56.2759 157.357 60.3663 155.526 64.4571C153.743 68.4996 151.213 71.8924 147.936 74.6355C144.707 77.3786 141.237 78.7502 137.527 78.7502H108.034V75.5018H113.167C114.516 75.3092 115.504 74.6116 116.13 73.4083V32.1893C115.986 31.3711 115.6 30.6733 114.974 30.0958C114.395 29.4702 113.649 29.0852 112.733 28.9408H108.034V25.6924H138.9ZM134.563 75.1408C137.599 75.1408 140.346 74.0098 142.804 71.748C145.261 69.4862 147.117 66.6467 148.37 63.2299C149.671 59.7649 150.321 55.9872 150.321 51.8964C150.321 47.7578 149.671 43.9558 148.37 40.4908C147.069 36.9776 145.165 34.1866 142.659 32.1171C140.201 30.0477 137.358 29.013 134.129 29.013H125.961C124.66 29.2055 123.672 29.9274 122.997 31.1786V72.1811C123.238 73.5766 123.985 74.5633 125.238 75.1408H134.563Z" fill="white"/>
<path d="M131.429 26.25V75.4688" stroke="white" stroke-width="2"/>
</svg>
