<svg width="56" height="32" viewBox="0 0 56 32" fill="none" xmlns="http://www.w3.org/2000/svg">
<path d="M16 32C24.8366 32 32 24.8366 32 16C32 7.16339 24.8366 8.08388e-07 16 8.08388e-07C7.16339 8.08388e-07 8.08388e-07 7.16339 8.08388e-07 16C8.08388e-07 24.8366 7.16339 32 16 32Z" fill="#F7931A"/>
<path d="M13.726 24.17C12.758 24.17 11.812 23.7667 10.888 22.96C9.964 22.168 9.22333 21.1413 8.666 19.88C8.10867 18.6187 7.83 17.3573 7.83 16.096C7.83 14.8493 8.10867 13.6027 8.666 12.356C9.20867 11.124 9.97867 10.09 10.976 9.254C11.9587 8.418 13.0147 8 14.144 8H23.12V8.99H21.558C21.1473 9.04867 20.8467 9.26133 20.656 9.628V22.19C20.7 22.4393 20.8173 22.652 21.008 22.828C21.184 23.0187 21.4113 23.136 21.69 23.18H23.12V24.17H13.726ZM15.046 9.1C14.122 9.1 13.286 9.44467 12.538 10.134C11.79 10.8233 11.2253 11.6887 10.844 12.73C10.448 13.786 10.25 14.9373 10.25 16.184C10.25 17.4453 10.448 18.604 10.844 19.66C11.24 20.7307 11.8193 21.5813 12.582 22.212C13.33 22.8427 14.1953 23.158 15.178 23.158H17.664C18.06 23.0993 18.3607 22.8793 18.566 22.498V10.002C18.4927 9.57667 18.2653 9.276 17.884 9.1H15.046Z" fill="white"/>
<line y1="-1" x2="15" y2="-1" transform="matrix(-1.85353e-07 -1 -1 1.77578e-08 15 24)" stroke="white" stroke-width="2"/>
<path d="M40 0C31.1634 0 24 7.16339 24 16C24 24.8366 31.1634 32 40 32C48.8366 32 56 24.8366 56 16C56 7.16339 48.8366 0 40 0Z" fill="black"/>
<path d="M42.274 7.83C43.242 7.83 44.188 8.23333 45.112 9.04C46.036 9.832 46.7767 10.8587 47.334 12.12C47.8913 13.3813 48.17 14.6427 48.17 15.904C48.17 17.1507 47.8913 18.3973 47.334 19.644C46.7913 20.876 46.0213 21.91 45.024 22.746C44.0413 23.582 42.9853 24 41.856 24H32.88V23.01H34.442C34.8527 22.9513 35.1533 22.7387 35.344 22.372V9.81C35.3 9.56067 35.1827 9.348 34.992 9.172C34.816 8.98133 34.5887 8.864 34.31 8.82H32.88V7.83H42.274ZM40.954 22.9C41.878 22.9 42.714 22.5553 43.462 21.866C44.21 21.1767 44.7747 20.3113 45.156 19.27C45.552 18.214 45.75 17.0627 45.75 15.816C45.75 14.5547 45.552 13.396 45.156 12.34C44.76 11.2693 44.1807 10.4187 43.418 9.788C42.67 9.15733 41.8047 8.842 40.822 8.842H38.336C37.94 8.90067 37.6393 9.12067 37.434 9.502V21.998C37.5073 22.4233 37.7347 22.724 38.116 22.9H40.954Z" fill="white"/>
<line x1="40" y1="8" x2="40" y2="23" stroke="white" stroke-width="2"/>
</svg>
